<svg width="160" height="40" viewBox="0 0 160 40" fill="none" xmlns="http://www.w3.org/2000/svg">
<path fill-rule="evenodd" clip-rule="evenodd" d="M43.76 8.23999C47.92 10.64 52.16 13.12 56.32 15.52C56.32 19.6 56.32 23.68 56.32 27.84C52.16 25.44 47.92 22.96 43.76 20.56C43.76 16.4 43.76 12.32 43.76 8.23999Z" fill="#BBBCBF"/>
<path fill-rule="evenodd" clip-rule="evenodd" d="M43.76 20.48C47.92 22.88 52.16 25.36 56.32 27.76C53.76 29.28 48.24 32.4 45.68 33.92C41.52 31.52 37.28 29.04 33.12 26.64C35.68 25.2 41.12 22 43.76 20.48Z" fill="#D0D2D3"/>
<path fill-rule="evenodd" clip-rule="evenodd" d="M33.12 14.4C34.4 13.68 38.64 11.2 39.92 10.48C41.2 9.75999 42.48 8.95999 43.76 8.23999C43.76 9.75999 43.76 11.2 43.76 12.72C43.76 14.24 43.76 19.04 43.76 20.56C42.48 21.28 41.2 22.08 39.92 22.8C38.64 23.52 34.4 26 33.12 26.72C33.12 25.2 33.12 23.76 33.12 22.24C33.12 20.72 33.12 15.84 33.12 14.4Z" fill="#E5E6E7"/>
<path fill-rule="evenodd" clip-rule="evenodd" d="M49.52 26.08L43.68 29.44L37.84 26.08L36 27.2C38.56 28.72 41.2 30.16 43.76 31.68C46.32 30.16 48.96 28.72 51.52 27.2L49.52 26.08Z" fill="#309E41"/>
<path fill-rule="evenodd" clip-rule="evenodd" d="M45.68 12.72L51.52 16.08V22.8L53.44 23.92C53.44 20.96 53.44 17.92 53.44 14.96C50.88 13.44 48.24 12 45.68 10.48V12.72Z" fill="#248837"/>
<path fill-rule="evenodd" clip-rule="evenodd" d="M43.76 8.24L46.64 9.92L48.56 8.8C46 7.28 46.32 7.52 43.76 6V8.24Z" fill="#248837"/>
<path fill-rule="evenodd" clip-rule="evenodd" d="M43.76 8.24L40.8 9.92L38.88 8.8C41.44 7.28 41.12 7.52 43.76 6V8.24Z" fill="#39B44A"/>
<path fill-rule="evenodd" clip-rule="evenodd" d="M41.84 12.72L36 16V22.72L34.08 23.84C34.08 20.88 34.08 17.84 34.08 14.88C36.64 13.36 39.28 11.92 41.84 10.4V12.72Z" fill="#39B44A"/>
<path fill-rule="evenodd" clip-rule="evenodd" d="M59.2 11.6L53.36 14.96L45.6 10.48L48.48 8.80001L43.68 6.00001L38.88 8.80001L41.76 10.48L34 14.96L28.16 11.6C41.92 3.68001 43.04 3.04001 43.76 2.64001C48.88 5.60001 54.08 8.56001 59.2 11.6Z" fill="#309E41"/>
<path fill-rule="evenodd" clip-rule="evenodd" d="M43.76 38.4V31.68L51.52 27.2V30.56L56.32 27.76V22.16L53.44 23.84V14.88L59.28 11.52C59.28 27.28 59.28 28.64 59.28 29.44C54.08 32.4 48.88 35.44 43.76 38.4Z" fill="#39B44A"/>
<path fill-rule="evenodd" clip-rule="evenodd" d="M54.4 26.64V23.28L56.32 22.16C56.32 25.12 56.32 24.72 56.32 27.76L54.4 26.64Z" fill="#248837"/>
<path fill-rule="evenodd" clip-rule="evenodd" d="M54.4 26.64L51.52 28.32V30.56C54.08 29.04 53.76 29.28 56.32 27.76L54.4 26.64Z" fill="#309E41"/>
<path fill-rule="evenodd" clip-rule="evenodd" d="M43.76 38.4V31.68L36 27.2V30.56L31.2 27.76V22.16L34.08 23.84V14.88L28.24 11.52C28.24 27.28 28.24 28.64 28.24 29.44C33.44 32.4 38.56 35.44 43.76 38.4Z" fill="#248837"/>
<path fill-rule="evenodd" clip-rule="evenodd" d="M33.12 26.64V23.28L31.2 22.16C31.2 25.12 31.2 24.72 31.2 27.76L33.12 26.64Z" fill="#39B44A"/>
<path fill-rule="evenodd" clip-rule="evenodd" d="M33.12 26.64L36 28.32V30.56C33.44 29.04 33.76 29.28 31.2 27.76L33.12 26.64Z" fill="#309E41"/>
<path d="M10.64 29.44H15.6V23.04H24.08V18.96H15.6V15.92H24.96V11.6H10.64V29.44ZM2.40002 29.44H7.36002V11.6H2.40002V29.44Z" fill="#309E41"/>
<path d="M145.04 20.0799V15.8399H148.24C149.92 15.8399 150.88 16.5599 150.88 17.9199V17.9999C150.88 19.2799 149.92 20.0799 148.24 20.0799H145.04ZM140.16 29.3599H145.12V23.9999H147.2H147.28L150.88 29.3599H156.56L152.32 23.1999C154.56 22.2399 156 20.4799 156 17.7599V17.5999C156 15.8399 155.44 14.4799 154.4 13.4399C153.2 12.2399 151.36 11.5199 148.64 11.5199H140.24V29.3599H140.16ZM123.2 29.3599H137.6V25.1999H128.08V22.3999H136.64V18.4799H128.08V15.7599H137.52V11.5999H123.2V29.3599ZM104.72 29.3599H109.68V24.7999L111.52 22.7999L116 29.3599H121.92L114.88 19.1999L121.6 11.5999H115.76L109.68 18.7999V11.5999H104.72V29.3599ZM90.96 22.3199L92.96 17.2799L94.96 22.3199H90.96ZM83.12 29.3599H88.32L89.6 26.1599H96.48L97.76 29.3599H103.04L95.44 11.4399H90.72L83.12 29.3599ZM62.48 29.3599H67.28V19.1999L71.76 26.0799H71.84L76.4 19.1199V29.3599H81.28V11.5999H76.08L71.84 18.4799L67.6 11.5999H62.4V29.3599H62.48Z" fill="#DA4128"/>
</svg>
